<?xml version="1.0" encoding="UTF-8" standalone="no"?>
<svg
   xmlns:dc="http://purl.org/dc/elements/1.1/"
   xmlns:cc="http://creativecommons.org/ns#"
   xmlns:rdf="http://www.w3.org/1999/02/22-rdf-syntax-ns#"
   xmlns:svg="http://www.w3.org/2000/svg"
   xmlns="http://www.w3.org/2000/svg"
   xmlns:sodipodi="http://sodipodi.sourceforge.net/DTD/sodipodi-0.dtd"
   xmlns:inkscape="http://www.inkscape.org/namespaces/inkscape"
   width="297mm"
   height="210mm"
   viewBox="0 0 297 210"
   version="1.1"
   id="svg8"
   inkscape:version="1.0.1 (3bc2e813f5, 2020-09-07)"
   sodipodi:docname="headgear3.svg">
  <defs
     id="defs2">
    <marker
       style="overflow:visible"
       id="marker2445"
       refX="0.0"
       refY="0.0"
       orient="auto"
       inkscape:stockid="Arrow1Lstart"
       inkscape:isstock="true">
      <path
         transform="scale(0.8) translate(12.5,0)"
         style="fill-rule:evenodd;stroke:#000000;stroke-width:1pt;stroke-opacity:1;fill:#000000;fill-opacity:1"
         d="M 0.0,0.0 L 5.0,-5.0 L -12.5,0.0 L 5.0,5.0 L 0.0,0.0 z "
         id="path2443" />
    </marker>
    <rect
       x="13.898015"
       y="115.46044"
       width="31.537804"
       height="18.708867"
       id="rect2334" />
    <marker
       style="overflow:visible"
       id="Arrow1Lstart"
       refX="0.0"
       refY="0.0"
       orient="auto"
       inkscape:stockid="Arrow1Lstart"
       inkscape:isstock="true"
       inkscape:collect="always">
      <path
         transform="scale(0.8) translate(12.5,0)"
         style="fill-rule:evenodd;stroke:#000000;stroke-width:1pt;stroke-opacity:1;fill:#000000;fill-opacity:1"
         d="M 0.0,0.0 L 5.0,-5.0 L -12.5,0.0 L 5.0,5.0 L 0.0,0.0 z "
         id="path2038" />
    </marker>
    <inkscape:path-effect
       effect="skeletal"
       id="path-effect2020"
       is_visible="true"
       lpeversion="1"
       pattern="M 805.99595,-120.50081 H 6.9959466 v 15.06667 H 805.99595 Z"
       copytype="single_stretched"
       prop_scale="1"
       scale_y_rel="false"
       spacing="0"
       normal_offset="0"
       tang_offset="0"
       prop_units="false"
       vertical_pattern="false"
       hide_knot="false"
       fuse_tolerance="0" />
    <rect
       x="56.051926"
       y="12.989725"
       width="124.72621"
       height="18.586744"
       id="rect1189" />
    <marker
       style="overflow:visible"
       id="Arrow1Lstart-6"
       refX="0"
       refY="0"
       orient="auto"
       inkscape:stockid="Arrow1Lstart"
       inkscape:isstock="true">
      <path
         transform="matrix(0.8,0,0,0.8,10,0)"
         style="fill:#000000;fill-opacity:1;fill-rule:evenodd;stroke:#000000;stroke-width:1pt;stroke-opacity:1"
         d="M 0,0 5,-5 -12.5,0 5,5 Z"
         id="path2038-7" />
    </marker>
    <rect
       x="13.898015"
       y="115.46044"
       width="31.537804"
       height="18.708866"
       id="rect2334-5" />
    <rect
       x="13.898015"
       y="115.46044"
       width="31.537804"
       height="18.708866"
       id="rect2373" />
  </defs>
  <sodipodi:namedview
     id="base"
     pagecolor="#ffffff"
     bordercolor="#666666"
     borderopacity="1.0"
     inkscape:pageopacity="0.0"
     inkscape:pageshadow="2"
     inkscape:zoom="0.9899495"
     inkscape:cx="317.84471"
     inkscape:cy="718.15576"
     inkscape:document-units="mm"
     inkscape:current-layer="g2510"
     inkscape:document-rotation="0"
     showgrid="false"
     inkscape:snap-global="false"
     inkscape:window-width="1280"
     inkscape:window-height="996"
     inkscape:window-x="0"
     inkscape:window-y="0"
     inkscape:window-maximized="1" />
  <metadata
     id="metadata5">
    <rdf:RDF>
      <cc:Work
         rdf:about="">
        <dc:format>image/svg+xml</dc:format>
        <dc:type
           rdf:resource="http://purl.org/dc/dcmitype/StillImage" />
        <dc:title />
      </cc:Work>
    </rdf:RDF>
  </metadata>
  <g
     inkscape:label="Layer 1"
     inkscape:groupmode="layer"
     id="layer1">
    <g
       id="g2510">
      <g
         id="g2032"
         transform="translate(-9.5773744,4.8201383)">
        <g
           id="g861">
          <path
             id="rect1104-4"
             style="opacity:0.989;fill:none;stroke:#000000;stroke-width:9.71014;stroke-miterlimit:4;stroke-dasharray:none;stop-color:#000000"
             d="m 28.04567,166.63287 c 0,0 24.10829,-20.33248 31.45684,-33.55531 5.55413,-9.99399 8.79081,-21.58546 8.58469,-32.8667 C 67.87786,88.75328 63.08027,77.609116 58.15407,67.133362 52.71458,55.566081 36.81108,34.946547 36.81108,34.946547 l 120.31545,-0.785285 0.30658,89.953168"
             sodipodi:nodetypes="csssccc" />
          <path
             id="rect1126"
             style="opacity:0.989;fill:none;stroke:#000000;stroke-width:8.90494;stroke-miterlimit:4;stroke-dasharray:none;stop-color:#000000"
             d="m 557.57782,34.43779 h -799 v 15.06662 h 799 z" />
          <path
             id="rect1104-4-3"
             style="opacity:0.989;fill:none;stroke:#000000;stroke-width:9.71013;stroke-miterlimit:4;stroke-dasharray:none;stop-color:#000000"
             d="m 286.20739,166.63288 c 0,0 -24.10829,-20.33248 -31.45684,-33.55531 -5.55413,-9.994 -8.79081,-21.58547 -8.58469,-32.86671 0.20934,-11.45758 5.00693,-22.601743 9.93313,-33.077497 5.43949,-11.567282 21.34299,-32.186816 21.34299,-32.186816 l -120.31545,-0.785285 0.22796,97.971258"
             sodipodi:nodetypes="csssccc" />
        </g>
        <path
           style="fill:none;fill-rule:evenodd;stroke:#000000;stroke-width:8.95;stroke-linecap:butt;stroke-linejoin:miter;stroke-miterlimit:4;stroke-dasharray:none;stroke-opacity:1"
           d="m 561.67132,158.89574 c -8.8e-4,-0.32483 -0.002,-0.64965 -0.003,-0.97448 l -0.0423,-2.80467 v 0 c -0.0373,-1.25419 -0.0746,-2.50839 -0.11196,-3.76258 l 0,0 c -0.13404,3.6e-4 -0.26813,7.1e-4 -0.40226,0.001 l 0,0 c -0.52563,0.001 -1.05134,0.003 -1.57713,0.004 v 0 c -2.02216,0.005 -4.04449,0.01 -6.06697,0.0144 -2e-5,0 -3e-5,0 -4e-5,0 l 0,0 c -7.45422,0.0168 -14.90869,0.031 -22.36342,0.0434 -2e-5,0 -3e-5,0 -4e-5,0 h 0 c -24.7575,0.0411 -49.5148,0.0621 -74.27185,0.0607 l -4e-5,0 h 0 c -58.42575,0.0104 -116.8261,0.015 -175.19427,-0.61659 l 0,0 c -9.87045,-1.46689 -19.67148,-4.53214 -29.41567,-8.22088 0,0 -10e-6,-1e-5 -10e-6,-1e-5 -10.06498,-3.77408 -20.06192,-8.26362 -30.31749,-12.64398 l 0,0 c -10.13462,-4.34361 -20.56769,-8.59217 -31.55196,-11.84198 l 0,0 c -10.80537,-3.21012 -22.20204,-5.28337 -33.88089,-5.28728 h 0 c -11.51342,0.0606 -22.73379,2.16473 -33.36025,5.38744 -1e-5,0 -3e-5,10e-6 -4e-5,10e-6 -10.80345,3.26272 -21.05407,7.50548 -31.007439,11.83584 -1.2e-5,0 -2.5e-5,10e-6 -3.7e-5,10e-6 -10.071443,4.36648 -19.885103,8.83491 -29.768009,12.59041 -1.2e-5,0 -2.4e-5,1e-5 -3.6e-5,1e-5 -9.563122,3.66914 -19.183479,6.71827 -28.873792,8.1819 -26.9950004,0.35261 -54.01085,0.47105 -81.044576,0.55264 -30.611716,0.10773 -61.227041,0.13628 -91.845691,0.12679 l -4e-5,0 c -24.99793,-0.008 -49.99619,-0.0425 -74.99474,-0.10091 -1e-5,0 -3e-5,0 -4e-5,0 -7.56895,-0.0177 -15.1376,-0.0375 -22.70595,-0.0604 -2e-5,0 -3e-5,0 -4e-5,0 -2.05776,-0.006 -4.11532,-0.0127 -6.17269,-0.0195 -2e-5,0 -3e-5,0 -4e-5,0 -2e-5,0 -3e-5,0 -4e-5,0 -0.53544,-0.002 -1.07077,-0.004 -1.606,-0.005 -0.13664,-4.7e-4 -0.27324,-9.4e-4 -0.40977,-0.001 -0.0346,-1.3e-4 -0.0692,-2.5e-4 -0.10376,-3.7e-4 -0.009,-3e-5 -0.0175,-6e-5 -0.0262,-9e-5 l -0.0536,15.06657 c 0.009,3e-5 0.0176,6e-5 0.0264,9e-5 0.0347,1.3e-4 0.0694,2.5e-4 0.10409,3.7e-4 0.13697,4.8e-4 0.27389,9.6e-4 0.41076,0.001 0.53612,0.002 1.07214,0.004 1.60805,0.005 2e-5,0 3e-5,0 4e-5,0 2e-5,0 3e-5,0 4e-5,0 2.05923,0.007 4.11827,0.0133 6.17712,0.0195 2e-5,0 3e-5,0 5e-5,0 7.57241,0.0229 15.14454,0.0428 22.71638,0.0605 1e-5,0 3e-5,0 4e-5,0 25.00803,0.0584 50.01646,0.0932 75.02525,0.10095 l 2e-5,0 2e-5,0 c 30.63113,0.01 61.265688,-0.0191 91.903378,-0.12688 27.391964,-0.10992 54.8024668,-0.25724 82.228535,-0.63928 11.516809,-1.76926 22.51159,-5.11806 32.997065,-9.08092 1.3e-5,-1e-5 2.7e-5,-1e-5 4e-5,-2e-5 10.470957,-3.9927 20.496838,-8.54751 30.404673,-12.84954 l 1.8e-5,-1e-5 c 9.816191,-4.24714 19.513671,-8.28755 29.348041,-11.22881 l 2e-5,0 c 9.63205,-2.86725 19.41881,-4.75879 29.05941,-4.74964 9.81204,-0.0562 19.77771,1.81253 29.58791,4.67362 10.0145,2.93425 19.89247,6.98322 29.88665,11.2432 10.08911,4.3155 20.29396,8.88848 30.94123,12.8943 10e-6,0 3e-5,1e-5 4e-5,1e-5 10.66086,3.97576 21.82779,7.33381 33.51337,9.0993 58.82197,0.66007 117.6221,0.6834 176.39361,0.70034 l 4e-5,0 c 24.76614,0.001 49.53205,-0.0196 74.29768,-0.0607 2e-5,0 3e-5,0 4e-5,0 7.4572,-0.0124 14.91465,-0.0266 22.37236,-0.0434 10e-6,0 2e-5,0 4e-5,0 2.02343,-0.005 4.04702,-0.009 6.07078,-0.0144 1e-5,0 3e-5,0 4e-5,0 0.5262,-0.001 1.05249,-0.003 1.57886,-0.004 h 0 c 0.13433,-3.5e-4 0.2687,-7e-4 0.40312,-0.001 0.0307,-1.25438 0.0613,-2.50876 0.092,-3.76313 l 0.0182,-2.80484 c 0.008,-0.32485 0.007,-0.64967 0.006,-0.9745 z"
           id="path2009"
           sodipodi:nodetypes="ccscc"
           inkscape:path-effect="#path-effect2020"
           inkscape:original-d="m -245.48265,158.88695 c 0,0 189.578224,0.68021 279.563925,-0.53453 42.231409,-6.4379 79.690265,-37.8484 122.409435,-37.95228 43.40044,-0.10553 81.62691,31.51621 124.54761,37.95228 94.64835,1.0432 280.63298,0.53453 280.63298,0.53453" />
      </g>
      <path
         style="fill:none;fill-rule:evenodd;stroke:#000000;stroke-width:0.264583px;stroke-linecap:butt;stroke-linejoin:miter;stroke-opacity:1"
         d="m 34.745038,59.333833 0.53454,89.802557"
         id="path2034" />
      <path
         style="fill:none;fill-rule:evenodd;stroke:#000000;stroke-width:1;stroke-linecap:butt;stroke-linejoin:miter;stroke-opacity:1;stroke-miterlimit:4;stroke-dasharray:none;marker-end:url(#Arrow1Lstart)"
         d="M 34.210498,104.76965 H 11.22532 v 0"
         id="path2036" />
      <text
         xml:space="preserve"
         id="text2332"
         style="font-size:4.63021px;line-height:125%;font-family:'B&amp;H Lucida';-inkscape-font-specification:'B&amp;H Lucida, Normal';letter-spacing:0px;word-spacing:0px;writing-mode:lr-tb;white-space:pre;shape-inside:url(#rect2334);fill:#000000;stroke:#000000;stroke-width:0.264583px;stroke-linecap:butt;stroke-linejoin:miter;stroke-opacity:1;fill-opacity:1;"><tspan
           x="13.898438"
           y="119.71851"><tspan
             style="fill:#000000;fill-opacity:1">Extend 36 cm</tspan></tspan></text>
      <path
         style="fill:none;fill-rule:evenodd;stroke:#000000;stroke-width:0.264583px;stroke-linecap:butt;stroke-linejoin:miter;stroke-opacity:1"
         d="m 259.91736,59.333836 0.53454,89.802554"
         id="path2034-3" />
      <path
         style="fill:none;fill-rule:evenodd;stroke:#000000;stroke-width:1;stroke-linecap:butt;stroke-linejoin:miter;stroke-miterlimit:4;stroke-dasharray:none;stroke-opacity:1;marker-start:url(#marker2445)"
         d="m 282.368,104.23511 h -22.98518 v 0"
         id="path2036-5" />
      <text
         xml:space="preserve"
         id="text2332-6"
         style="font-size:4.63021px;line-height:125%;font-family:'B&amp;H Lucida';-inkscape-font-specification:'B&amp;H Lucida, Normal';letter-spacing:0px;word-spacing:0px;writing-mode:lr-tb;white-space:pre;shape-inside:url(#rect2334-5);fill:#000000;stroke:#000000;stroke-width:0.264583px;stroke-linecap:butt;stroke-linejoin:miter;stroke-opacity:1;fill-opacity:1;"
         transform="translate(248.1575,-1.0690748)"><tspan
           x="13.898438"
           y="119.71851"><tspan
             style="fill:#000000;fill-opacity:1">Extend 36 cm</tspan></tspan></text>
    </g>
  </g>
</svg>
