<?xml version="1.0" encoding="UTF-8" standalone="no"?>
<svg
   xmlns:dc="http://purl.org/dc/elements/1.1/"
   xmlns:cc="http://creativecommons.org/ns#"
   xmlns:rdf="http://www.w3.org/1999/02/22-rdf-syntax-ns#"
   xmlns:svg="http://www.w3.org/2000/svg"
   xmlns="http://www.w3.org/2000/svg"
   xmlns:sodipodi="http://sodipodi.sourceforge.net/DTD/sodipodi-0.dtd"
   xmlns:inkscape="http://www.inkscape.org/namespaces/inkscape"
   width="210mm"
   height="297mm"
   viewBox="0 0 210 297"
   version="1.1"
   id="svg8"
   inkscape:version="1.0.1 (3bc2e813f5, 2020-09-07)"
   sodipodi:docname="hinge.svg">
  <defs
     id="defs2">
    <rect
       x="120.27129"
       y="101.56242"
       width="15.902537"
       height="10.022607"
       id="rect884" />
    <rect
       x="120.27129"
       y="101.56242"
       width="15.902537"
       height="10.022607"
       id="rect884-5" />
    <rect
       x="120.27129"
       y="101.56242"
       width="15.902537"
       height="10.022607"
       id="rect903" />
  </defs>
  <sodipodi:namedview
     id="base"
     pagecolor="#ffffff"
     bordercolor="#666666"
     borderopacity="1.0"
     inkscape:pageopacity="0.0"
     inkscape:pageshadow="2"
     inkscape:zoom="0.98994949"
     inkscape:cx="364.69839"
     inkscape:cy="500.20411"
     inkscape:document-units="mm"
     inkscape:current-layer="layer1"
     inkscape:document-rotation="0"
     showgrid="false"
     inkscape:window-width="1280"
     inkscape:window-height="996"
     inkscape:window-x="0"
     inkscape:window-y="0"
     inkscape:window-maximized="1" />
  <metadata
     id="metadata5">
    <rdf:RDF>
      <cc:Work
         rdf:about="">
        <dc:format>image/svg+xml</dc:format>
        <dc:type
           rdf:resource="http://purl.org/dc/dcmitype/StillImage" />
        <dc:title></dc:title>
      </cc:Work>
    </rdf:RDF>
  </metadata>
  <g
     inkscape:label="Layer 1"
     inkscape:groupmode="layer"
     id="layer1">
    <g
       id="g874"
       transform="translate(-126.68576,-101.02788)">
      <path
         style="opacity:0.993;fill:none;fill-rule:evenodd;stroke:#040000;stroke-width:0.268817;stroke-linecap:butt;stroke-linejoin:miter;stroke-miterlimit:4;stroke-dasharray:none;stroke-opacity:1"
         d="m 192.25591,204.96477 c 0.0343,-1.06025 0.3705,-2.13748 0.91446,-3.0482 0.39298,-0.65793 0.98805,-1.2006 1.6257,-1.6257 0.5181,-0.3454 1.13136,-0.53081 1.72731,-0.71125 0.66115,-0.20018 1.3438,-0.34818 2.03213,-0.40642 1.18167,-0.1 2.37035,-0.14656 3.55623,-0.15242 1.76246,-0.009 3.52138,0.0847 5.28354,0.0508 1.25292,-0.0241 2.50629,0 3.75944,0 h 3.96266 2.03212 l 2.03213,-1.93052 0.60964,-0.50804 h 18.39078 0.40643 l -0.40643,16.81588 -19.25443,-0.40643 c 0,0 -1.08293,-1.0669 -2.08294,-1.87972 -3.21279,-0.13556 -6.63816,-0.0847 -9.95743,-0.10161 -2.23532,-0.0114 -4.47098,0.036 -6.70603,0 -1.05034,-0.0169 -2.13547,0.1716 -3.1498,-0.1016 -0.48286,-0.13005 -1.04288,-0.25346 -1.4733,-0.50803 -0.59027,-0.34913 -1.23363,-0.64166 -1.72731,-1.11767 -0.29761,-0.28697 -0.61799,-0.70225 -0.81285,-1.06688 -0.30831,-0.57689 -0.41706,-1.15298 -0.60964,-1.77811 -0.13304,-0.43184 -0.16702,-1.07247 -0.15241,-1.52409 z"
         id="path847"
         sodipodi:nodetypes="sssssssssccccccccssssssss" />
      <path
         style="fill:none;fill-rule:evenodd;stroke:#040000;stroke-width:0.264583px;stroke-linecap:butt;stroke-linejoin:miter;stroke-opacity:1"
         d="m 235.10119,200.56362 -0.33073,9.02418 -4.20499,-0.18899 -0.7087,-0.42523 -0.28348,-0.51971 -0.0945,-0.70871 0.42522,-6.37835 0.33073,-0.47247 0.70871,-0.47247 1.6064,0.0472 z"
         id="path851" />
      <ellipse
         style="opacity:0.993;fill:none;stroke:#040000;stroke-width:1;stroke-miterlimit:4;stroke-dasharray:none;stroke-opacity:1;stop-color:#000000"
         id="path853"
         cx="211.61942"
         cy="204.88672"
         rx="0.8976934"
         ry="0.92131698" />
      <ellipse
         style="opacity:0.993;fill:none;stroke:#040000;stroke-width:1;stroke-miterlimit:4;stroke-dasharray:none;stroke-opacity:1;stop-color:#000000"
         id="path853-8"
         cx="197.77603"
         cy="204.91034"
         rx="0.89769346"
         ry="0.92131698" />
    </g>
    <path
       style="fill:none;fill-rule:evenodd;stroke:#000000;stroke-width:0.264583px;stroke-linecap:butt;stroke-linejoin:miter;stroke-opacity:1"
       d="m 114.70905,95.738773 6.63132,-0.05628"
       id="path876"
       sodipodi:nodetypes="cc" />
    <path
       style="fill:none;fill-rule:evenodd;stroke:#000000;stroke-width:0.264583px;stroke-linecap:butt;stroke-linejoin:miter;stroke-opacity:1"
       d="m 114.56989,112.42102 6.5032,0.0994"
       id="path878"
       sodipodi:nodetypes="cc" />
    <path
       style="fill:none;fill-rule:evenodd;stroke:#000000;stroke-width:0.264583px;stroke-linecap:butt;stroke-linejoin:miter;stroke-opacity:1"
       d="m 117.73223,95.949758 -0.40091,16.437082 v 0"
       id="path880" />
    <text
       xml:space="preserve"
       id="text882"
       style="font-size:4.63021px;line-height:125%;font-family:'B&amp;H Lucida';-inkscape-font-specification:'B&amp;H Lucida, Normal';letter-spacing:0px;word-spacing:0px;writing-mode:lr-tb;white-space:pre;shape-inside:url(#rect884);fill:#000000;stroke:#000000;stroke-width:0.264583px;stroke-linecap:butt;stroke-linejoin:miter;stroke-opacity:1;fill-opacity:1;"><tspan
         x="120.27148"
         y="105.82007"><tspan
           style="fill:#000000;fill-opacity:1">16mm</tspan></tspan></text>
    <path
       style="fill:none;fill-rule:evenodd;stroke:#000000;stroke-width:0.264583px;stroke-linecap:butt;stroke-linejoin:miter;stroke-opacity:1"
       d="M 65.347399,98.355186 65.748304,85.793518"
       id="path888" />
    <path
       style="fill:none;fill-rule:evenodd;stroke:#000000;stroke-width:0.264583px;stroke-linecap:butt;stroke-linejoin:miter;stroke-opacity:1"
       d="M 111.58503,92.742524 V 86.060787"
       id="path890" />
    <path
       style="fill:none;fill-rule:evenodd;stroke:#000000;stroke-width:0.264583px;stroke-linecap:butt;stroke-linejoin:miter;stroke-opacity:1"
       d="m 65.614668,90.337099 45.703092,-0.668173 h 0.13363"
       id="path892" />
    <text
       xml:space="preserve"
       id="text882-0"
       style="font-size:4.63021px;line-height:125%;font-family:'B&amp;H Lucida';-inkscape-font-specification:'B&amp;H Lucida, Normal';letter-spacing:0px;word-spacing:0px;writing-mode:lr-tb;white-space:pre;shape-inside:url(#rect884-5);fill:#000000;fill-opacity:1;stroke:#000000;stroke-width:0.264583px;stroke-linecap:butt;stroke-linejoin:miter;stroke-opacity:1;"
       transform="translate(-38.236884,-18.26059)"><tspan
         x="120.27148"
         y="105.82007"><tspan
           style="fill:#000000;fill-opacity:1">46mm</tspan></tspan></text>
  </g>
</svg>
