<?xml version="1.0" encoding="UTF-8" standalone="no"?>
<svg
   xmlns:dc="http://purl.org/dc/elements/1.1/"
   xmlns:cc="http://creativecommons.org/ns#"
   xmlns:rdf="http://www.w3.org/1999/02/22-rdf-syntax-ns#"
   xmlns:svg="http://www.w3.org/2000/svg"
   xmlns="http://www.w3.org/2000/svg"
   xmlns:sodipodi="http://sodipodi.sourceforge.net/DTD/sodipodi-0.dtd"
   xmlns:inkscape="http://www.inkscape.org/namespaces/inkscape"
   width="47.760109mm"
   height="80.490166mm"
   viewBox="0 0 47.760109 80.490166"
   version="1.1"
   id="svg8"
   inkscape:version="1.0.1 (3bc2e813f5, 2020-09-07)"
   sodipodi:docname="pfaff30-key.svg">
  <defs
     id="defs2" />
  <sodipodi:namedview
     id="base"
     pagecolor="#ffffff"
     bordercolor="#666666"
     borderopacity="1.0"
     inkscape:pageopacity="0.0"
     inkscape:pageshadow="2"
     inkscape:zoom="1.979899"
     inkscape:cx="40.151496"
     inkscape:cy="171.08603"
     inkscape:document-units="mm"
     inkscape:current-layer="layer1"
     inkscape:document-rotation="0"
     showgrid="false"
     inkscape:window-width="1280"
     inkscape:window-height="995"
     inkscape:window-x="0"
     inkscape:window-y="0"
     inkscape:window-maximized="1"
     fit-margin-top="0"
     fit-margin-left="0"
     fit-margin-right="0"
     fit-margin-bottom="0" />
  <metadata
     id="metadata5">
    <rdf:RDF>
      <cc:Work
         rdf:about="">
        <dc:format>image/svg+xml</dc:format>
        <dc:type
           rdf:resource="http://purl.org/dc/dcmitype/StillImage" />
        <dc:title></dc:title>
      </cc:Work>
    </rdf:RDF>
  </metadata>
  <g
     inkscape:label="Layer 1"
     inkscape:groupmode="layer"
     id="layer1"
     transform="translate(-94.195264,-79.284356)">
    <path
       style="fill:none;fill-rule:evenodd;stroke:#000000;stroke-width:0.199524;stroke-linecap:butt;stroke-linejoin:miter;stroke-miterlimit:4;stroke-dasharray:none;stroke-opacity:1"
       d="m 105.78966,91.611452 c 1.54866,0.08613 3.18536,0.156372 4.57616,0.842963 1.51486,0.747823 2.78696,2.017366 3.75984,3.398494 0.71546,1.01566 1.1338,2.236608 1.42225,3.445004 0.31627,1.324867 0.54139,2.731017 0.31482,4.074127 -0.23602,1.39914 -0.91474,2.72118 -1.70206,3.90162 -0.78992,1.18434 -2.02342,2.00671 -2.95789,3.08069 -0.52164,0.59954 -1.10751,1.16847 -1.47493,1.87315 -0.3862,0.74068 -0.56439,1.57887 -0.72672,2.39826 -0.19067,0.96254 -0.22758,1.95035 -0.28482,2.92992 -0.19659,3.36408 -0.14395,6.73813 -0.20048,10.10748 -0.0336,2.00395 -0.0312,4.0549 -0.0825,6.01214 -0.005,0.17762 -0.256,0.2469 -0.39239,0.36078 -0.11188,0.0934 -0.28251,0.13399 -0.34863,0.26388 -0.18166,0.35688 -0.16738,0.82778 -0.0226,1.20116 0.0952,0.24546 0.52731,0.31046 0.54329,0.57323 0.0464,0.76322 -0.0453,1.47343 -0.0645,2.21737 -0.01,0.36796 -0.87089,0.30481 -0.87558,0.67286 -0.0286,2.24777 -0.11464,4.46114 -0.29643,6.70079 -0.03,0.36975 -0.118,0.76093 -0.33633,1.06084 -0.19328,0.2655 -0.49338,0.46023 -0.80223,0.57185 -0.27515,0.0995 -0.58764,0.1186 -0.87528,0.0651 -0.35131,-0.0652 -0.74033,-0.18374 -0.96908,-0.45823 -0.33691,-0.40427 -0.41553,-0.99934 -0.40651,-1.52552 0.0374,-2.1812 0.22528,-4.10089 0.29023,-6.4433 0.0108,-0.39073 -0.8092,-0.3644 -0.90743,-0.74273 -0.1611,-0.62053 -0.0326,-1.39898 -0.008,-2.00359 0.0101,-0.25103 0.43459,-0.27561 0.58167,-0.47929 0.0727,-0.10072 0.11136,-0.22553 0.1345,-0.3476 0.0646,-0.34086 0.14199,-0.72172 0.006,-1.0408 -0.13589,-0.31828 -0.75226,-0.36784 -0.75384,-0.71392 -0.0226,-4.95822 0.38736,-10.33977 0.26926,-15.5088 -0.0254,-1.11148 -0.0187,-2.23353 -0.21016,-3.32869 -0.12491,-0.71432 -0.30677,-1.42913 -0.60784,-2.08884 -0.25457,-0.55785 -0.60891,-1.07129 -0.99747,-1.54565 -0.54347,-0.66348 -1.25015,-1.17552 -1.844803,-1.79355 -0.617332,-0.64161 -1.298427,-1.24102 -1.786752,-1.98553 -0.48832,-0.74449 -0.823352,-1.58663 -1.109301,-2.42982 -0.311542,-0.91866 -0.609341,-1.86724 -0.651078,-2.83639 -0.05037,-1.16968 0.136225,-2.361655 0.48857,-3.47814 0.369169,-1.169793 0.935311,-2.297558 1.672616,-3.277906 0.55933,-0.743706 1.268325,-1.38449 2.037008,-1.90896 1.0659,-0.727251 2.24715,-1.335717 3.49487,-1.664684 0.68023,-0.179347 1.40273,-0.18888 2.10513,-0.149815 z"
       id="path847"
       sodipodi:nodetypes="ssssssssssssssssssssssssssssssssssssssssssss" />
    <g
       id="g870">
      <path
         style="fill:none;fill-rule:evenodd;stroke:#000000;stroke-width:0.264583px;stroke-linecap:butt;stroke-linejoin:miter;stroke-opacity:1"
         d="m 105.79024,91.611404 20.41834,0.0213"
         id="path849" />
      <path
         style="fill:none;fill-rule:evenodd;stroke:#000000;stroke-width:0.264583px;stroke-linecap:butt;stroke-linejoin:miter;stroke-opacity:1"
         d="m 105.79024,147.68351 20.41834,0.0213"
         id="path849-8" />
    </g>
    <path
       style="fill:none;fill-rule:evenodd;stroke:#000000;stroke-width:0.264583px;stroke-linecap:butt;stroke-linejoin:miter;stroke-opacity:1"
       d="m 123.30284,91.721436 -0.27951,55.731554"
       id="path872"
       sodipodi:nodetypes="cc" />
    <text
       xml:space="preserve"
       style="font-size:4.63021px;line-height:125%;font-family:'B&amp;H Lucida';-inkscape-font-specification:'B&amp;H Lucida, Normal';letter-spacing:0px;word-spacing:0px;writing-mode:lr-tb;fill:#000000;fill-opacity:1;stroke:#000000;stroke-width:0.264583px;stroke-linecap:butt;stroke-linejoin:miter;stroke-opacity:1"
       x="128.81192"
       y="117.9773"
       id="text876"><tspan
         sodipodi:role="line"
         id="tspan874"
         x="128.81192"
         y="117.9773"
         style="fill:#000000;fill-opacity:1;stroke-width:0.264583px">56mm</tspan></text>
    <path
       style="fill:none;fill-rule:evenodd;stroke:#000000;stroke-width:0.264583px;stroke-linecap:butt;stroke-linejoin:miter;stroke-opacity:1"
       d="m 102.40833,134.07675 c -0.16867,19.35046 -0.16867,19.35046 -0.16867,19.35046"
       id="path878" />
    <path
       style="fill:none;fill-rule:evenodd;stroke:#000000;stroke-width:0.264583px;stroke-linecap:butt;stroke-linejoin:miter;stroke-opacity:1"
       d="m 109.36737,134.07675 c -0.16867,19.35046 -0.16867,19.35046 -0.16867,19.35046"
       id="path878-9" />
    <path
       style="fill:none;fill-rule:evenodd;stroke:#000000;stroke-width:0.264583px;stroke-linecap:butt;stroke-linejoin:miter;stroke-opacity:1"
       d="m 102.42621,150.09999 6.64284,0.13091"
       id="path895" />
    <text
       xml:space="preserve"
       style="font-size:4.63021px;line-height:125%;font-family:'B&amp;H Lucida';-inkscape-font-specification:'B&amp;H Lucida, Normal';letter-spacing:0px;word-spacing:0px;writing-mode:lr-tb;fill:#000000;fill-opacity:1;stroke:#000000;stroke-width:0.264583px;stroke-linecap:butt;stroke-linejoin:miter;stroke-opacity:1"
       x="105.26138"
       y="159.59702"
       id="text876-7"><tspan
         sodipodi:role="line"
         x="105.26138"
         y="159.59702"
         style="fill:#000000;fill-opacity:1;stroke-width:0.264583px"
         id="tspan915">5mm</tspan></text>
    <text
       xml:space="preserve"
       style="font-size:4.63021px;line-height:125%;font-family:'B&amp;H Lucida';-inkscape-font-specification:'B&amp;H Lucida, Normal';letter-spacing:0px;word-spacing:0px;writing-mode:lr-tb;fill:#000000;fill-opacity:1;stroke:#000000;stroke-width:0.264583px;stroke-linecap:butt;stroke-linejoin:miter;stroke-opacity:1"
       x="94.115036"
       y="82.889305"
       id="text876-3"><tspan
         sodipodi:role="line"
         id="tspan874-8"
         x="94.115036"
         y="82.889305"
         style="fill:#000000;fill-opacity:1;stroke-width:0.264583px">2mm thick</tspan></text>
  </g>
</svg>
